HIERARCHY
ROOT Hips
{
	OFFSET 0.00000 0.00000 0.00000
	CHANNELS 6 Xposition Yposition Zposition Zrotation Yrotation Xrotation 
	JOINT LHipJoint
	{
		OFFSET 0 0 0
		CHANNELS 3 Zrotation Yrotation Xrotation
		JOINT LeftUpLeg
		{
			OFFSET 1.53794 -1.55850 0.93568
			CHANNELS 3 Zrotation Yrotation Xrotation
			JOINT LeftLeg
			{
				OFFSET 2.28545 -6.27922 0.00000
				CHANNELS 3 Zrotation Yrotation Xrotation
				JOINT LeftFoot
				{
					OFFSET 2.37329 -6.52057 0.00000
					CHANNELS 3 Zrotation Yrotation Xrotation
					JOINT LeftToeBase
					{
						OFFSET 0.14846 -0.40788 2.09160
						CHANNELS 3 Zrotation Yrotation Xrotation
						End Site
						{
							OFFSET 0.00000 -0.00000 1.07536
						}
					}
				}
			}
		}
	}
	JOINT RHipJoint
	{
		OFFSET 0 0 0
		CHANNELS 3 Zrotation Yrotation Xrotation
		JOINT RightUpLeg
		{
			OFFSET -1.78290 -1.55850 0.93568
			CHANNELS 3 Zrotation Yrotation Xrotation
			JOINT RightLeg
			{
				OFFSET -2.24144 -6.15831 0.00000
				CHANNELS 3 Zrotation Yrotation Xrotation
				JOINT RightFoot
				{
					OFFSET -2.35091 -6.45907 0.00000
					CHANNELS 3 Zrotation Yrotation Xrotation
					JOINT RightToeBase
					{
						OFFSET -0.14428 -0.39641 2.07944
						CHANNELS 3 Zrotation Yrotation Xrotation
						End Site
						{
							OFFSET -0.00000 -0.00000 1.06864
						}
					}
				}
			}
		}
	}
	JOINT LowerBack
	{
		OFFSET 0 0 0
		CHANNELS 3 Zrotation Yrotation Xrotation
		JOINT Spine
		{
			OFFSET -0.08841 2.11430 -0.15818
			CHANNELS 3 Zrotation Yrotation Xrotation
			JOINT Spine1
			{
				OFFSET -0.00033 2.12605 -0.08097
				CHANNELS 3 Zrotation Yrotation Xrotation
				JOINT Neck
				{
					OFFSET 0 0 0
					CHANNELS 3 Zrotation Yrotation Xrotation
					JOINT Neck1
					{
						OFFSET 0.04431 1.59447 0.43193
						CHANNELS 3 Zrotation Yrotation Xrotation
						JOINT Head
						{
							OFFSET 0.00455 1.62017 -0.58852
							CHANNELS 3 Zrotation Yrotation Xrotation
							End Site
							{
								OFFSET -0.00920 1.72955 -0.25850
							}
						}
					}
				}
				JOINT LeftShoulder
				{
					OFFSET 0 0 0
					CHANNELS 3 Zrotation Yrotation Xrotation
					JOINT LeftArm
					{
						OFFSET 2.86490 1.49927 -0.33774
						CHANNELS 3 Zrotation Yrotation Xrotation
						JOINT LeftForeArm
						{
							OFFSET 4.87408 -0.00000 0.00000
							CHANNELS 3 Zrotation Yrotation Xrotation
							JOINT LeftHand
							{
								OFFSET 2.76729 -0.00000 0.00000
								CHANNELS 3 Zrotation Yrotation Xrotation
								JOINT LeftFingerBase
								{
									OFFSET 0 0 0
									CHANNELS 3 Zrotation Yrotation Xrotation
									JOINT LeftHandIndex1
									{
										OFFSET 0.98922 -0.00000 0.00000
										CHANNELS 3 Zrotation Yrotation Xrotation
										End Site
										{
											OFFSET 0.79753 -0.00000 0.00000
										}
									}
								}
								JOINT LThumb
								{
									OFFSET 0 0 0
									CHANNELS 3 Zrotation Yrotation Xrotation
									End Site
									{
										OFFSET 0.80972 -0.00000 0.80972
									}
								}
							}
						}
					}
				}
				JOINT RightShoulder
				{
					OFFSET 0 0 0
					CHANNELS 3 Zrotation Yrotation Xrotation
					JOINT RightArm
					{
						OFFSET -2.94414 1.45463 -0.25291
						CHANNELS 3 Zrotation Yrotation Xrotation
						JOINT RightForeArm
						{
							OFFSET -4.71404 -0.00000 0.00000
							CHANNELS 3 Zrotation Yrotation Xrotation
							JOINT RightHand
							{
								OFFSET -2.83468 -0.00000 0.00000
								CHANNELS 3 Zrotation Yrotation Xrotation
								JOINT RightFingerBase
								{
									OFFSET 0 0 0
									CHANNELS 3 Zrotation Yrotation Xrotation
									JOINT RightHandIndex1
									{
										OFFSET -0.86820 -0.00000 0.00000
										CHANNELS 3 Zrotation Yrotation Xrotation
										End Site
										{
											OFFSET -0.69996 -0.00000 0.00000
										}
									}
								}
								JOINT RThumb
								{
									OFFSET 0 0 0
									CHANNELS 3 Zrotation Yrotation Xrotation
									End Site
									{
										OFFSET -0.71065 -0.00000 0.71065
									}
								}
							}
						}
					}
				}
			}
		}
	}
}
MOTION
Frames: 6
Frame Time: .0083333
2.1133 7.7087 3.4954 178.6580 7.8753 -112.8760 0.0000 0.0000 0.0000 2.6913 3.5240 -104.4309 36.4780 11.4956 146.0300 -0.0404 12.8365 -17.7381 0.6741 -5.2500 -14.6229 0.0000 0.0000 0.0000 20.0392 12.1995 -33.2696 -25.7407 -19.1908 107.0053 0.5943 -19.2386 7.6223 -0.4805 4.4453 -12.3328 -6.0640 2.3049 15.4264 -5.9058 4.7356 12.0695 -3.3507 2.9633 4.4939 5.3640 -1.1383 -23.9673 3.2118 -3.8202 8.4832 -0.2595 -1.4165 6.3863 -0.0000 0.0000 0.0000 -62.2898 -32.0607 45.9339 40.8568 -48.5694 -19.0792 -0.0000 -0.0000 31.9844 47.8910 19.5920 20.3543 -7.1250 0.0000 -0.0000 22.2097 56.5249 6.4983 -0.0000 0.0000 0.0000 77.0549 40.3222 20.6733 -65.6046 57.6273 -39.0413 0.0000 0.0000 40.4237 -52.4996 -7.0189 9.0482 7.1250 -0.0000 -0.0000 -22.5744 -40.3156 -2.7702
2.0859 7.6670 3.3883 178.8900 7.9772 -112.8490 0.0000 0.0000 0.0000 2.3165 3.6672 -103.6536 36.5336 11.4143 146.3098 -0.0745 13.1577 -17.7672 0.6876 -5.3015 -14.7704 0.0000 0.0000 0.0000 19.8859 11.8602 -32.5449 -25.6451 -19.2182 106.7145 0.6598 -19.3862 7.0108 -0.5717 4.8423 -13.4594 -5.9860 2.1209 15.2007 -5.9160 4.4698 11.9581 -3.3620 2.8261 4.4828 5.5195 -0.8554 -24.0635 3.0555 -3.4888 8.4470 -0.2961 -1.2716 6.3863 0.0000 0.0000 0.0000 -62.3490 -30.5506 44.8981 42.9722 -49.7355 -20.6796 -0.0000 -0.0000 32.1465 49.0104 20.0483 21.5295 -7.1250 0.0000 -0.0000 23.8647 57.4319 7.5536 0.0000 0.0000 0.0000 78.3625 39.9301 22.0642 -64.8359 57.4666 -38.3926 0.0000 0.0000 40.9848 -52.9217 -6.9109 9.0469 7.1250 -0.0000 -0.0000 -22.9164 -40.2166 -2.8774
2.0534 7.6257 3.2858 179.1000 8.0078 -112.8290 0.0000 0.0000 0.0000 1.9783 3.5158 -102.9364 36.5599 11.3756 146.4428 -0.1221 13.5587 -17.7497 0.6976 -5.3391 -14.8784 0.0000 0.0000 0.0000 19.7375 11.4481 -31.8494 -25.5625 -19.2414 106.4636 0.7301 -19.3715 6.1075 -0.7146 5.4022 -15.0595 -5.8831 1.8959 15.0586 -5.8738 4.1355 11.8316 -3.3307 2.6535 4.4045 5.6296 -0.5518 -24.0926 2.9015 -3.1108 8.3937 -0.3189 -1.1070 6.3726 -0.0000 -0.0000 0.0000 -62.6200 -29.0066 43.3467 45.5898 -51.0542 -22.6965 -0.0000 -0.0000 32.5032 50.0035 19.9836 22.1627 -7.1250 0.0000 -0.0000 25.1976 57.6492 8.1462 -0.0000 -0.0000 0.0000 79.5206 39.4911 23.4972 -64.1293 57.3135 -37.7974 0.0000 0.0000 41.4719 -53.3141 -6.8226 9.0601 7.1250 -0.0000 -0.0000 -23.2377 -40.1424 -2.9688
2.0174 7.5869 3.1888 179.2730 7.9553 -112.8220 0.0000 0.0000 0.0000 1.6938 3.0837 -102.3082 36.5622 11.3721 146.4545 -0.1838 13.9833 -17.5962 0.6954 -5.3307 -14.8541 0.0000 0.0000 0.0000 19.6104 10.9821 -31.1883 -25.4891 -19.2617 106.2412 0.7883 -19.1496 5.0084 -0.9130 6.0884 -17.0413 -5.7573 1.6467 15.0106 -5.7669 3.7568 11.7000 -3.2444 2.4571 4.2652 5.6965 -0.2490 -24.1072 2.7473 -2.7190 8.3465 -0.3334 -0.9368 6.3603 0.0000 0.0000 0.0000 -63.0513 -27.5682 41.3698 48.6767 -52.4476 -25.1212 -0.0000 -0.0000 33.2965 51.0080 19.4079 22.3163 -7.1250 0.0000 -0.0000 26.3195 57.2189 8.2643 0.0000 0.0000 0.0000 80.4651 39.0098 24.8888 -63.4981 57.1722 -37.2666 0.0000 0.0000 41.8434 -53.6884 -6.7458 9.0814 7.1250 -0.0000 -0.0000 -23.5461 -40.0820 -3.0514
1.9808 7.5536 3.0960 179.3850 7.8310 -112.8220 0.0000 0.0000 0.0000 1.4678 2.4213 -101.7676 36.5500 11.3901 146.3929 -0.2517 14.3810 -17.3229 0.6803 -5.2738 -14.6910 0.0000 0.0000 0.0000 19.4987 10.4810 -30.5844 -25.4247 -19.2793 106.0461 0.8230 -18.7582 3.8817 -1.1098 6.6929 -18.8087 -5.6513 1.3973 15.0517 -5.5873 3.3657 11.5723 -3.0728 2.2500 4.0777 5.6904 0.0209 -24.1374 2.6214 -2.3532 8.3385 -0.3304 -0.7764 6.3650 -0.0000 -0.0000 0.0000 -63.5680 -26.4085 39.1862 52.2884 -53.8778 -28.0123 -0.0000 -0.0000 34.1667 51.8456 18.2348 21.7169 -7.1250 0.0000 -0.0000 26.8758 55.9498 7.6107 -0.0000 -0.0000 0.0000 81.1480 38.5015 26.1471 -62.9630 57.0491 -36.8172 0.0000 0.0000 42.1335 -54.0429 -6.7111 9.1518 7.1250 -0.0000 -0.0000 -23.8538 -40.0828 -3.0964
1.9469 7.5276 3.0069 179.4260 7.6243 -112.8120 0.0000 0.0000 0.0000 1.3335 1.6430 -101.3242 36.5367 11.4097 146.3255 -0.3133 14.6780 -16.9635 0.6500 -5.1574 -14.3580 0.0000 0.0000 0.0000 19.4335 9.9754 -30.0654 -25.3658 -19.2952 105.8678 0.8340 -18.3278 2.9562 -1.2209 7.0084 -19.7404 -5.5769 1.1602 15.1530 -5.3333 2.9828 11.4546 -2.8073 2.0419 3.8664 5.6134 0.2441 -24.2249 2.5390 -2.0382 8.3838 -0.3083 -0.6359 6.3968 -0.0000 0.0000 0.0000 -64.0522 -25.6712 36.9663 56.3516 -55.2566 -31.3237 -0.0000 -0.0000 35.1749 52.6039 16.8265 20.7402 -7.1250 0.0000 -0.0000 27.1447 54.3100 6.5782 -0.0000 0.0000 0.0000 81.5702 37.9916 27.2275 -62.5217 56.9453 -36.4472 0.0000 0.0000 42.3282 -54.3775 -6.7188 9.2736 7.1250 -0.0000 -0.0000 -24.1620 -40.1464 -3.1015
